<svg width="164" height="164" viewBox="0 0 164 164" fill="none" xmlns="http://www.w3.org/2000/svg">
<g filter="url(#filter0_d_1_1520)">
<rect x="50" y="26" width="64" height="64" rx="24" fill="#DC0155"/>
<path d="M90.0001 51.5C90.0001 47.09 86.4101 43.5 82.0001 43.5C77.5901 43.5 74.0001 47.09 74.0001 51.5C74.0001 55.91 77.5901 59.5 82.0001 59.5C86.4101 59.5 90.0001 55.91 90.0001 51.5ZM77.0001 51.5C77.0001 48.74 79.2401 46.5 82.0001 46.5C84.7601 46.5 87.0001 48.74 87.0001 51.5C87.0001 54.26 84.7601 56.5 82.0001 56.5C79.2401 56.5 77.0001 54.26 77.0001 51.5ZM84.4001 61.5H79.6001C74.3601 61.5 70.1001 65.76 70.1001 71C70.1001 71.83 70.7701 72.5 71.6001 72.5H92.4001C93.2301 72.5 93.9001 71.83 93.9001 71C93.9001 65.76 89.6401 61.5 84.4001 61.5ZM73.2701 69.5C73.9501 66.64 76.5301 64.5 79.6001 64.5H84.4001C87.4701 64.5 90.0501 66.64 90.7301 69.5H73.2701Z" fill="#F4F3F8"/>
</g>
<defs>
<filter id="filter0_d_1_1520" x="0" y="0" width="164" height="164" filterUnits="userSpaceOnUse" color-interpolation-filters="sRGB">
<feFlood flood-opacity="0" result="BackgroundImageFix"/>
<feColorMatrix in="SourceAlpha" type="matrix" values="0 0 0 0 0 0 0 0 0 0 0 0 0 0 0 0 0 0 127 0" result="hardAlpha"/>
<feOffset dy="24"/>
<feGaussianBlur stdDeviation="25"/>
<feComposite in2="hardAlpha" operator="out"/>
<feColorMatrix type="matrix" values="0 0 0 0 0.0509804 0 0 0 0 0.0470588 0 0 0 0 0.219608 0 0 0 0.15 0"/>
<feBlend mode="normal" in2="BackgroundImageFix" result="effect1_dropShadow_1_1520"/>
<feBlend mode="normal" in="SourceGraphic" in2="effect1_dropShadow_1_1520" result="shape"/>
</filter>
</defs>
</svg>
