<svg width="164" height="164" viewBox="0 0 164 164" fill="none" xmlns="http://www.w3.org/2000/svg">
<g filter="url(#filter0_d_1_1528)">
<rect x="50" y="26" width="64" height="64" rx="24" fill="#DC0155"/>
<path d="M68.6668 56.6667H76.6668C77.0204 56.6667 77.3596 56.5262 77.6096 56.2761C77.8597 56.0261 78.0001 55.687 78.0001 55.3333V47.3333C78.0001 46.9797 77.8597 46.6406 77.6096 46.3905C77.3596 46.1405 77.0204 46 76.6668 46H68.6668C68.3132 46 67.974 46.1405 67.724 46.3905C67.4739 46.6406 67.3335 46.9797 67.3335 47.3333V55.3333C67.3335 55.687 67.4739 56.0261 67.724 56.2761C67.974 56.5262 68.3132 56.6667 68.6668 56.6667ZM70.0001 48.6667H75.3335V54H70.0001V48.6667ZM95.3335 50H82.0001C81.6465 50 81.3074 50.1405 81.0573 50.3905C80.8073 50.6406 80.6668 50.9797 80.6668 51.3333C80.6668 51.687 80.8073 52.0261 81.0573 52.2761C81.3074 52.5262 81.6465 52.6667 82.0001 52.6667H95.3335C95.6871 52.6667 96.0262 52.5262 96.2763 52.2761C96.5263 52.0261 96.6668 51.687 96.6668 51.3333C96.6668 50.9797 96.5263 50.6406 96.2763 50.3905C96.0262 50.1405 95.6871 50 95.3335 50ZM95.3335 63.3333H82.0001C81.6465 63.3333 81.3074 63.4738 81.0573 63.7239C80.8073 63.9739 80.6668 64.313 80.6668 64.6667C80.6668 65.0203 80.8073 65.3594 81.0573 65.6095C81.3074 65.8595 81.6465 66 82.0001 66H95.3335C95.6871 66 96.0262 65.8595 96.2763 65.6095C96.5263 65.3594 96.6668 65.0203 96.6668 64.6667C96.6668 64.313 96.5263 63.9739 96.2763 63.7239C96.0262 63.4738 95.6871 63.3333 95.3335 63.3333ZM71.2561 68.6667H71.2721C71.6217 68.6655 71.9569 68.5272 72.2055 68.2813L77.6001 62.948C77.7385 62.8289 77.851 62.6826 77.9306 62.5182C78.0101 62.3538 78.055 62.1749 78.0626 61.9924C78.0701 61.81 78.0401 61.6279 77.9744 61.4575C77.9087 61.2872 77.8086 61.1321 77.6805 61.002C77.5524 60.8718 77.3989 60.7694 77.2296 60.701C77.0603 60.6327 76.8787 60.5998 76.6961 60.6045C76.5136 60.6092 76.3339 60.6513 76.1683 60.7283C76.0027 60.8053 75.8547 60.9155 75.7335 61.052L71.2948 65.4373L69.6255 63.704C69.5037 63.5781 69.3583 63.4774 69.1976 63.4077C69.0369 63.338 68.8641 63.3006 68.689 63.2977C68.3353 63.2919 67.9937 63.4267 67.7395 63.6727C67.4852 63.9186 67.3391 64.2555 67.3332 64.6092C67.3273 64.9629 67.4622 65.3044 67.7081 65.5587L70.3135 68.2667C70.4365 68.3922 70.5831 68.4921 70.7449 68.5608C70.9066 68.6294 71.0804 68.6654 71.2561 68.6667Z" fill="#F4F3F8"/>
</g>
<defs>
<filter id="filter0_d_1_1528" x="0" y="0" width="164" height="164" filterUnits="userSpaceOnUse" color-interpolation-filters="sRGB">
<feFlood flood-opacity="0" result="BackgroundImageFix"/>
<feColorMatrix in="SourceAlpha" type="matrix" values="0 0 0 0 0 0 0 0 0 0 0 0 0 0 0 0 0 0 127 0" result="hardAlpha"/>
<feOffset dy="24"/>
<feGaussianBlur stdDeviation="25"/>
<feComposite in2="hardAlpha" operator="out"/>
<feColorMatrix type="matrix" values="0 0 0 0 0.0509804 0 0 0 0 0.0470588 0 0 0 0 0.219608 0 0 0 0.15 0"/>
<feBlend mode="normal" in2="BackgroundImageFix" result="effect1_dropShadow_1_1528"/>
<feBlend mode="normal" in="SourceGraphic" in2="effect1_dropShadow_1_1528" result="shape"/>
</filter>
</defs>
</svg>
